PathFileType	4	(X/Y/Z)	C:/Users/opensim2020/Desktop/walking_exp_matlab/subject02_walking10_straight_03.trc	
DataRate	CameraRate	NumFrames	NumMarkers	Units	OrigDataRate	OrigDataStartFrame	OrigNumFrames	
100.00	100.00	5	43	mm	100.00	2223	270	
Frame#	Time	LFHD			RFHD			LBHD			RBHD			C7			T10			CLAV			STRN			RBAK			LSHO			LUPA			LELB			LFRM			LWRA			LWRB			LFIN			RSHO			RUPA			RELB			RFRM			RWRA			RWRB			RFIN			LASI			RASI			LPSI			RPSI			LTHI			LKNE			LTIB			LANK			LHEE			LTOE			RTHI			RKNE			RTIB			RANK			RHEE			RTOE			*39			*40			*41			*42			
		X1	Y1	Z1	X2	Y2	Z2	X3	Y3	Z3	X4	Y4	Z4	X5	Y5	Z5	X6	Y6	Z6	X7	Y7	Z7	X8	Y8	Z8	X9	Y9	Z9	X10	Y10	Z10	X11	Y11	Z11	X12	Y12	Z12	X13	Y13	Z13	X14	Y14	Z14	X15	Y15	Z15	X16	Y16	Z16	X17	Y17	Z17	X18	Y18	Z18	X19	Y19	Z19	X20	Y20	Z20	X21	Y21	Z21	X22	Y22	Z22	X23	Y23	Z23	X24	Y24	Z24	X25	Y25	Z25	X26	Y26	Z26	X27	Y27	Z27	X28	Y28	Z28	X29	Y29	Z29	X30	Y30	Z30	X31	Y31	Z31	X32	Y32	Z32	X33	Y33	Z33	X34	Y34	Z34	X35	Y35	Z35	X36	Y36	Z36	X37	Y37	Z37	X38	Y38	Z38	X39	Y39	Z39	X40	Y40	Z40	X41	Y41	Z41	X42	Y42	Z42	X43	Y43	Z43	

34	0.330	1408.93762	-799.36127	1709.35559	1551.68494	-807.33527	1689.30029	1393.66846	-933.90405	1644.26245	1534.62463	-954.92084	1623.35083	1461.58875	-997.13342	1501.34058	1467.16638	-1055.17737	1226.33167	1449.68579	-861.11517	1431.01611	1453.89294	-812.09308	1258.32141	1522.44971	-1059.85168	1326.23303	1281.25854	-925.16199	1479.86292	1191.78699	-907.91064	1282.27954	1175.30933	-873.81134	1143.28491	1175.97168	-807.32971	1027.07446	1225.69360	-706.95526	945.74249	1189.22534	-743.26160	923.02118	1191.15710	-693.81244	879.72717	1648.05542	-922.26703	1460.12720	1727.82776	-964.13019	1271.18188	1746.30652	-958.95343	1125.14990	1770.50720	-932.97827	1008.79846	1755.82825	-884.00220	881.40515	1784.64453	-932.23810	878.69641	1791.12976	-895.25867	816.45740	1320.72412	-842.88605	958.64197	1577.03040	-815.10535	957.83838	1422.40894	-1042.04236	1006.09625	1536.24194	-1037.14978	1005.80524	1291.26404	-965.26489	653.74536	1328.95056	-1036.47998	463.77316	1334.20959	-1145.59424	301.47693	1375.54285	-1204.65320	84.31432	1426.21899	-1246.30786	64.60965	1368.29346	-1055.64539	26.56958	1671.37488	-821.09943	665.04272	1635.64990	-757.66577	466.16849	1646.98254	-744.42938	278.76404	1620.99597	-699.26740	88.45914	1562.74133	-709.26587	27.81187	1646.26147	-539.71136	69.11701	1495.26697	-899.21515	1781.35828	-3360.31226	2845.22241	1034.17786						 
35	0.340	1411.79529	-791.44519	1708.73145	1554.58313	-799.26843	1688.44800	1396.60522	-925.79407	1643.40271	1537.51660	-946.71191	1622.21777	1464.44995	-988.77509	1500.29102	1470.20471	-1046.05176	1225.04492	1452.33630	-852.51453	1430.31287	1456.17676	-803.32806	1257.64294	1525.43970	-1051.00452	1325.04114	1284.04065	-917.01135	1479.01672	1194.69763	-901.47394	1281.10156	1178.43701	-868.42639	1141.76086	1178.38770	-804.21338	1024.46814	1227.29785	-704.85669	941.17133	1190.81799	-742.17773	919.38098	1192.34497	-693.59058	874.87244	1650.80786	-913.65234	1459.35278	1730.28918	-955.67035	1270.29907	1748.83276	-951.20447	1124.49915	1772.89001	-926.00848	1007.83496	1758.80237	-877.60022	880.31537	1787.25024	-926.03400	877.84119	1793.93848	-889.56738	815.30865	1323.18652	-833.29163	958.01428	1579.26062	-805.01373	957.31549	1425.70642	-1032.16687	1005.10187	1539.44934	-1027.00391	1004.79846	1293.03467	-957.13403	653.32355	1330.02917	-1029.59460	464.01514	1335.21252	-1141.40686	303.56876	1375.55896	-1203.55200	86.84966	1426.33911	-1245.21643	67.94672	1368.23132	-1055.79053	26.67811	1672.93860	-810.54114	663.89508	1636.65369	-749.31409	464.45016	1646.84729	-739.19177	276.38058	1619.93518	-697.64600	85.63945	1562.25574	-709.40417	25.58264	1644.18274	-538.24597	63.64445	1498.45691	-891.44366	1780.39771	-3360.15894	2845.18188	1034.06104						 
36	0.350	1414.59656	-783.60553	1708.19897	1557.58936	-791.15234	1687.62463	1399.57068	-917.70074	1642.53394	1540.47205	-938.45715	1621.05359	1467.38684	-980.41156	1499.15820	1473.46936	-1036.80273	1223.62207	1455.04224	-843.97412	1429.50232	1458.78674	-794.10779	1257.09668	1528.05273	-1041.99426	1323.18140	1286.90002	-908.88928	1478.10010	1197.70190	-894.05298	1280.17090	1181.57678	-863.43060	1140.41687	1180.75366	-801.29523	1021.79175	1229.15686	-703.08990	936.64197	1192.53589	-741.15991	915.42352	1193.70752	-693.57703	869.93011	1653.55713	-904.97925	1458.51428	1732.98413	-947.34784	1269.68311	1751.31104	-943.21082	1123.78589	1775.60132	-918.67523	1007.08990	1761.69006	-871.04120	879.20526	1789.92798	-919.61182	877.05865	1796.76245	-883.61249	814.20618	1325.49805	-823.67749	957.45386	1581.91406	-794.00574	957.09131	1429.24341	-1022.16180	1004.08496	1542.90515	-1016.58063	1003.73480	1294.50208	-949.42157	653.36292	1331.12964	-1022.46936	464.37177	1336.27905	-1136.97791	305.77606	1375.58459	-1202.32605	89.70728	1426.41992	-1243.90894	71.57243	1367.90894	-1055.61829	26.68814	1674.54541	-800.22693	662.57263	1637.76538	-741.68488	462.24686	1646.36121	-734.10632	273.99405	1619.24597	-694.89404	83.64449	1561.90918	-708.01160	26.15114	1642.85864	-535.41437	56.66370	1501.70679	-883.58228	1779.45276	-3360.26270	2845.17920	1034.01257						 
37	0.360	1418.07446	-775.21948	1708.15027	1560.62097	-782.88635	1687.14978	1402.58643	-909.46429	1641.95251	1543.45483	-930.01721	1620.12012	1470.35742	-972.24518	1498.14465	1477.03564	-1027.61108	1222.73596	1457.72778	-835.37384	1428.90320	1461.57239	-784.80115	1256.94080	1531.02759	-1032.75635	1322.21887	1289.74146	-900.83185	1477.26062	1200.56738	-887.13306	1279.05286	1184.99561	-858.09314	1138.90332	1183.33899	-798.63416	1019.23975	1230.59839	-701.94556	931.65228	1194.14441	-740.69208	911.48792	1194.80017	-694.13629	864.90912	1656.50464	-896.12842	1457.81396	1735.55688	-938.98883	1268.71277	1754.00928	-935.14752	1123.04883	1778.17542	-911.38397	1006.16406	1764.55627	-864.28271	878.10852	1792.66602	-912.93677	876.24976	1799.59875	-877.35529	813.18024	1327.98962	-813.63513	956.94397	1584.38806	-783.58917	956.66547	1432.93188	-1012.01868	1002.87415	1546.55249	-1005.96313	1002.76288	1296.01892	-941.08606	653.28271	1332.42737	-1015.00201	464.81870	1337.43506	-1132.19446	308.15836	1375.38818	-1200.90552	92.87466	1426.27502	-1242.36926	75.65168	1367.64453	-1055.39050	26.65194	1676.44043	-790.40302	661.51398	1640.25269	-733.83484	461.46231	1645.29175	-727.57355	272.61411	1620.79883	-688.85944	83.90651	1563.43579	-704.88049	28.91174	1643.81812	-529.39752	49.59396	1505.08337	-875.65820	1778.71729	-3357.34644	2845.96875	1034.33508						 
38	0.370	1421.05566	-767.15833	1708.30261	1563.80701	-774.56635	1687.17432	1405.67444	-901.07837	1641.93542	1546.46411	-921.51160	1619.81140	1473.42200	-964.15936	1497.56177	1480.53943	-1018.34125	1222.51147	1460.54846	-826.78729	1428.80188	1464.10754	-776.16327	1257.03198	1534.15808	-1024.12659	1321.99353	1292.49182	-892.83459	1476.58704	1203.77856	-880.00250	1277.88330	1188.37976	-853.08752	1137.50256	1185.83521	-796.24628	1016.63599	1231.99280	-701.36792	926.52393	1195.75024	-740.70081	907.66711	1195.92737	-695.48920	859.89178	1659.48108	-887.44257	1457.18481	1738.59509	-930.18549	1268.12488	1756.67517	-926.88513	1122.39124	1781.08899	-903.74329	1005.53711	1767.28979	-857.49933	877.02734	1795.31848	-906.13983	875.47290	1802.50305	-870.85852	812.32281	1330.60815	-803.37457	956.41699	1586.92542	-773.32159	956.31293	1436.69373	-1002.15662	1002.02179	1550.23962	-995.13031	1002.25421	1298.06885	-932.37756	653.18427	1333.72791	-1007.04248	465.48441	1338.64441	-1126.95264	310.90714	1375.13440	-1199.10120	96.55123	1425.97888	-1240.45337	80.17420	1367.45715	-1055.19421	26.62676	1678.72095	-781.52753	661.70026	1642.41028	-725.52875	461.35159	1647.61560	-719.41931	273.12128	1623.36047	-682.19171	83.97727	1565.56250	-702.18958	30.38976	1644.24341	-523.97021	47.04200	1508.40479	-867.54291	1778.62207	-3360.29639	2845.22852	1034.08093						 
